<?xml version="1.0" encoding="utf-8"?>
<!-- Generator: Adobe Illustrator 15.0.0, SVG Export Plug-In . SVG Version: 6.00 Build 0)  -->
<!DOCTYPE svg PUBLIC "-//W3C//DTD SVG 1.1//EN" "http://www.w3.org/Graphics/SVG/1.1/DTD/svg11.dtd">
<svg version="1.1" id="Calque_1" xmlns="http://www.w3.org/2000/svg" xmlns:xlink="http://www.w3.org/1999/xlink" x="0px" y="0px"
	 width="850.394px" height="850.394px" viewBox="0 0 850.394 850.394" enable-background="new 0 0 850.394 850.394"
	 xml:space="preserve">
<g>
	<defs>
		<rect id="SVGID_1_" width="850.394" height="850.394"/>
	</defs>
	<clipPath id="SVGID_2_">
		<use xlink:href="#SVGID_1_"  overflow="visible"/>
	</clipPath>
	<path clip-path="url(#SVGID_2_)" fill="#384A5B" d="M685.73,394.031c0,143.361-116.219,259.578-259.579,259.578
		c-143.361,0-259.58-116.217-259.58-259.578s116.218-259.579,259.58-259.579C569.512,134.452,685.73,250.67,685.73,394.031"/>
	<g clip-path="url(#SVGID_2_)">
		<path fill="none" d="M629.209,206.375C516.086,93.08,332.533,92.934,219.237,206.062
			c-113.299,113.12-113.442,296.674-0.315,409.969c113.12,113.299,296.672,113.441,409.973,0.318
			C742.189,503.226,742.33,319.673,629.209,206.375"/>
		<text transform="matrix(0.7966 0.6046 -0.6046 0.7966 236.1816 632.5854)"><tspan x="0" y="0" font-family="'Peignot'" font-size="49.139">N</tspan><tspan x="34.617" y="-0.329" font-family="'Peignot'" font-size="49.139" rotate="-6.09">o</tspan><tspan x="60.622" y="-3.295" font-family="'Peignot'" font-size="49.139" rotate="-10.671">s</tspan><tspan x="79.608" y="-7.003" font-family="'Peignot'" font-size="49.139" rotate="-13.838"> </tspan><tspan x="92.336" y="-9.761" font-family="'Peignot'" font-size="49.139" rotate="-18.534">A</tspan><tspan x="125.306" y="-21.133" font-family="'Peignot'" font-size="49.139" rotate="-24.806">m</tspan><tspan x="150.212" y="-33.002" font-family="'Peignot'" font-size="49.139" rotate="-28.542">i</tspan><tspan x="159.036" y="-37.701" font-family="'Peignot'" font-size="49.139" rotate="-31.417">s</tspan><tspan x="175.456" y="-47.876" font-family="'Peignot'" font-size="49.139" rotate="-34.538"> </tspan><tspan x="185.396" y="-54.755" font-family="'Peignot'" font-size="49.139" rotate="-36.753">l</tspan><tspan x="194.057" y="-61.131" font-family="'Peignot'" font-size="49.139" rotate="-39.651">e</tspan><tspan x="208.709" y="-73.322" font-family="'Peignot'" font-size="49.139" rotate="-43.445">s</tspan><tspan x="222.642" y="-86.689" font-family="'Peignot'" font-size="49.139" rotate="-46.569"> </tspan><tspan x="232.012" y="-95.939" font-family="'Peignot'" font-size="49.139" rotate="-51.545">O</tspan><tspan x="254.646" y="-125.435" font-family="'Peignot'" font-size="49.139" rotate="-56.284">i</tspan><tspan x="260.273" y="-133.705" font-family="'Peignot'" font-size="49.139" rotate="-59.188">s</tspan><tspan x="270.259" y="-150.555" font-family="'Peignot'" font-size="49.139" rotate="-63.036">e</tspan><tspan x="279.003" y="-167.688" font-family="'Peignot'" font-size="49.139" rotate="-67.311">a</tspan><tspan x="288.08" y="-189.694" font-family="'Peignot'" font-size="49.139" rotate="-71.794">u</tspan><tspan x="294.737" y="-209.936" font-family="'Peignot'" font-size="49.139" rotate="-76.336">x</tspan></text>
	</g>
	<g clip-path="url(#SVGID_2_)">
		<polygon fill="#FFFFFF" points="579.22,401.682 412.044,245.41 406.215,395.78 		"/>
		<polygon fill="#DCDCE5" points="229.89,262.676 412.044,245.41 406.14,418.412 324.331,346.126 		"/>
		<polygon fill="#A3A7B2" points="237.009,295.774 258.254,287.74 330.234,351.339 		"/>
		<polygon fill="#A3A7B2" points="406.139,418.411 450.75,514.118 456.416,540.46 388.051,620.18 		"/>
		<polygon fill="#DCDCE5" points="579.22,401.682 450.75,514.117 406.138,418.41 406.909,395.802 		"/>
		<polygon fill="#A3A7B2" points="577.703,425.86 579.22,401.683 450.75,514.118 		"/>
		<polygon fill="#DCDCE5" points="597.013,306.16 510.938,337.856 579.22,401.682 		"/>
		<polygon fill="#A3A7B2" points="640.866,337.542 597.014,306.16 589.095,348.675 		"/>
	</g>
</g>
</svg>
