<?xml version="1.0" encoding="utf-8"?>
<!-- Generator: Adobe Illustrator 21.0.2, SVG Export Plug-In . SVG Version: 6.00 Build 0)  -->
<svg version="1.1" id="Calque_1" xmlns="http://www.w3.org/2000/svg" xmlns:xlink="http://www.w3.org/1999/xlink" x="0px" y="0px"
	 viewBox="0 0 850.4 850.4" style="enable-background:new 0 0 850.4 850.4;" xml:space="preserve">
<style type="text/css">
	.st0{clip-path:url(#SVGID_6_);}
	.st1{fill:#FFFFFF;}
	.st2{fill:#DCDCE5;}
	.st3{fill:#A3A7B2;}
</style>
<g>
	<g>
		<defs>
			<rect id="SVGID_1_" y="0" width="850.4" height="850.4"/>
		</defs>
		<clipPath id="SVGID_2_">
			<use xlink:href="#SVGID_1_"  style="overflow:visible;"/>
		</clipPath>
	</g>
	<g>
		<defs>
			<rect id="SVGID_3_" y="0" width="850.4" height="850.4"/>
		</defs>
		<clipPath id="SVGID_4_">
			<use xlink:href="#SVGID_3_"  style="overflow:visible;"/>
		</clipPath>
	</g>
	<g>
		<defs>
			<rect id="SVGID_5_" y="0" width="850.4" height="850.4"/>
		</defs>
		<clipPath id="SVGID_6_">
			<use xlink:href="#SVGID_5_"  style="overflow:visible;"/>
		</clipPath>
		<g class="st0">
			<polygon class="st1" points="715.3,347.1 378.1,31.9 366.4,335.2 			"/>
			<polygon class="st2" points="10.8,66.7 378.1,31.9 366.2,380.8 201.3,235 			"/>
			<polygon class="st3" points="25.2,133.5 68,117.3 213.2,245.5 			"/>
			<polygon class="st3" points="366.2,380.8 456.2,573.8 467.6,626.9 329.8,787.7 			"/>
			<polygon class="st2" points="715.3,347.1 456.2,573.8 366.2,380.8 367.8,335.2 			"/>
			<polygon class="st3" points="712.2,395.8 715.3,347.1 456.2,573.8 			"/>
			<polygon class="st2" points="751.1,154.4 577.6,218.3 715.3,347.1 			"/>
			<polygon class="st3" points="839.6,217.7 751.1,154.4 735.2,240.2 			"/>
		</g>
	</g>
</g>
</svg>
